<?xml version="1.0" encoding="UTF-8" standalone="no"?>
<!-- Created with Inkscape (http://www.inkscape.org/) -->

<svg
   xmlns:dc="http://purl.org/dc/elements/1.1/"
   xmlns:cc="http://creativecommons.org/ns#"
   xmlns:rdf="http://www.w3.org/1999/02/22-rdf-syntax-ns#"
   xmlns:svg="http://www.w3.org/2000/svg"
   xmlns="http://www.w3.org/2000/svg"
   xmlns:sodipodi="http://sodipodi.sourceforge.net/DTD/sodipodi-0.dtd"
   xmlns:inkscape="http://www.inkscape.org/namespaces/inkscape"
   width="974.36334"
   height="665.54584"
   id="svg2"
   version="1.1"
   inkscape:version="0.48.4 r9939"
   sodipodi:docname="bananaplane.svg"
   inkscape:export-filename="C:\Users\Kaitlin\Desktop\ART\Impatient Banana\BananaPlane\bananaplane.png"
   inkscape:export-xdpi="90"
   inkscape:export-ydpi="90">
  <defs
     id="defs4" />
  <sodipodi:namedview
     id="base"
     pagecolor="#6767ff"
     bordercolor="#666666"
     borderopacity="1.0"
     inkscape:pageopacity="0"
     inkscape:pageshadow="2"
     inkscape:zoom="0.70710678"
     inkscape:cx="473.39909"
     inkscape:cy="276.64357"
     inkscape:document-units="px"
     inkscape:current-layer="layer4"
     showgrid="false"
     showguides="true"
     inkscape:guide-bbox="true"
     inkscape:window-width="1920"
     inkscape:window-height="1017"
     inkscape:window-x="-8"
     inkscape:window-y="-8"
     inkscape:window-maximized="1"
     fit-margin-top="0"
     fit-margin-left="0"
     fit-margin-right="0"
     fit-margin-bottom="0" />
  <metadata
     id="metadata7">
    <rdf:RDF>
      <cc:Work
         rdf:about="">
        <dc:format>image/svg+xml</dc:format>
        <dc:type
           rdf:resource="http://purl.org/dc/dcmitype/StillImage" />
        <dc:title></dc:title>
      </cc:Work>
    </rdf:RDF>
  </metadata>
  <g
     inkscape:label="Layer 1"
     inkscape:groupmode="layer"
     id="layer1"
     sodipodi:insensitive="true"
     style="display:none"
     transform="translate(-30.279153,-340.87434)">
    <path
       sodipodi:nodetypes="ccccc"
       inkscape:connector-curvature="0"
       id="path3811"
       d="m 383.65688,594.73286 c -54.76777,-36.63544 -26.5601,-51.16351 -30.25838,-84.51265 l -30.98426,12.64442 -85.17933,97.15922 z"
       style="fill:#e8e8e8;fill-opacity:1;fill-rule:nonzero;stroke:none" />
    <path
       style="fill:#f9f600;fill-opacity:1;stroke:none;display:inline"
       d="m 120.79253,618.18187 c 1.94129,-4.38074 4.23682,-8.07584 12.86265,-12.87737 32.83157,-15.58735 72.64942,-26.27554 87.9627,-23.41239 28.9927,5.4208 60.51062,8.11563 90.69221,5.58014 39.15698,-3.2895 84.58933,-17.62937 114.80526,-26.76866 12.04703,-3.64383 26.07291,-12.98295 36.5225,-22.82755 7.63297,-7.19104 11.73008,-21.77819 18.23411,-25.63741 6.5041,-3.85923 5.91704,-14.72774 9.34318,-22.04384 2.55933,-5.46524 5.539,-14.6513 11.26083,-13.44863 7.34504,1.54387 16.62378,11.57149 6.2818,21.6226 -8.88172,8.63207 2.01238,25.4431 0.71298,38.06794 -2.72504,26.47637 -1.05661,57.10611 -17.72538,77.85643 -15.84324,19.72267 -22.16352,20.95477 -68.62828,32.40505 -96.72692,23.83635 -259.67027,49.57423 -302.32827,-28.4925"
       id="path3817-4"
       inkscape:connector-curvature="0"
       sodipodi:nodetypes="ccsasassasaasc" />
    <path
       style="fill:#e8e8e8;fill-opacity:1;fill-rule:nonzero;stroke:none"
       d="m 405.71428,628.79076 c 16.42928,82.54118 70.87962,93.11392 111.42857,130.00001 L 451.07142,749.1479 254.28571,640.21934 c 90.85473,2.34991 113.55307,-5.69691 151.42857,-11.42858 z"
       id="rect3040"
       inkscape:connector-curvature="0"
       sodipodi:nodetypes="ccccc" />
    <rect
       style="fill:#e8e8e8;fill-opacity:1;fill-rule:nonzero;stroke:none"
       id="rect3883"
       width="15.75"
       height="22.25"
       x="237.08147"
       y="604.19061"
       ry="7.875" />
    <rect
       ry="7.875"
       y="607.37262"
       x="263.24442"
       height="22.25"
       width="15.75"
       id="rect3885"
       style="fill:#e8e8e8;fill-opacity:1;fill-rule:nonzero;stroke:none" />
    <rect
       style="fill:#e8e8e8;fill-opacity:1;fill-rule:nonzero;stroke:none"
       id="rect3887"
       width="15.75"
       height="22.25"
       x="291.52869"
       y="608.07971"
       ry="7.875" />
    <rect
       ry="7.875"
       y="605.25128"
       x="319.81296"
       height="22.25"
       width="15.75"
       id="rect3889"
       style="fill:#e8e8e8;fill-opacity:1;fill-rule:nonzero;stroke:none" />
    <rect
       style="fill:#e8e8e8;fill-opacity:1;fill-rule:nonzero;stroke:none"
       id="rect3891"
       width="15.75"
       height="22.25"
       x="347.74368"
       y="602.06934"
       ry="7.875" />
    <rect
       ry="7.875"
       y="598.88733"
       x="376.73508"
       height="22.25"
       width="15.75"
       id="rect3893"
       style="fill:#e8e8e8;fill-opacity:1;fill-rule:nonzero;stroke:none" />
    <rect
       style="fill:#e8e8e8;fill-opacity:1;fill-rule:nonzero;stroke:none"
       id="rect3895"
       width="15.75"
       height="22.25"
       x="407.14066"
       y="592.1698"
       ry="7.875" />
    <rect
       ry="7.875"
       y="585.45233"
       x="432.24295"
       height="22.25"
       width="15.75"
       id="rect3897"
       style="fill:#e8e8e8;fill-opacity:1;fill-rule:nonzero;stroke:none" />
    <path
       transform="matrix(0.83219617,0.55448132,-0.42199711,0.90659718,0,0)"
       style="fill:#e8e8e8;fill-opacity:1;fill-rule:nonzero;stroke:none"
       d="m 454.35728,390.11934 c 2.54856,2.26062 0.003,7.74545 -2.07419,11.08267 -3.49363,5.6128 -10.50232,16.71142 -15.74789,12.26521 -11.90286,-10.08901 -19.72774,-10.88965 -30.26947,-9.42339 8.13185,-7.74954 14.3961,-16.37801 20.83898,-20.48388 9.35472,-5.96151 20.68051,0.72985 27.25257,6.55939 z"
       id="rect3899"
       inkscape:connector-curvature="0"
       sodipodi:nodetypes="sascss" />
  </g>
  <g
     inkscape:groupmode="layer"
     id="layer3"
     inkscape:label="Layer"
     sodipodi:insensitive="true"
     style="display:none"
     transform="translate(-30.279153,-340.87434)">
    <path
       style="fill:#000000;fill-opacity:1;fill-rule:nonzero;stroke:none"
       d="m 383.65688,594.73285 c -54.76777,-36.63543 -26.5601,-51.1635 -30.25838,-84.51264 l -30.98426,12.64442 -85.17933,97.15921 z"
       id="path3902"
       inkscape:connector-curvature="0"
       sodipodi:nodetypes="ccccc" />
    <path
       sodipodi:nodetypes="ccsasassasaasc"
       inkscape:connector-curvature="0"
       id="path3904"
       d="m 120.79253,618.18186 c 1.94129,-4.38074 4.23682,-8.07584 12.86265,-12.87737 32.83157,-15.58735 72.64942,-26.27554 87.9627,-23.41239 28.9927,5.4208 60.51062,8.11563 90.69221,5.58014 39.15698,-3.2895 84.58933,-17.62936 114.80526,-26.76865 12.04703,-3.64383 26.07291,-12.98295 36.5225,-22.82755 7.63297,-7.19104 11.73008,-21.77819 18.23411,-25.63741 6.5041,-3.85923 5.91704,-14.72774 9.34318,-22.04384 2.55933,-5.46524 5.539,-14.6513 11.26083,-13.44863 7.34504,1.54387 16.62378,11.57149 6.2818,21.6226 -8.88172,8.63207 2.01238,25.4431 0.71298,38.06794 -2.72504,26.47637 -1.05661,57.1061 -17.72538,77.85642 -15.84324,19.72267 -22.16352,20.95477 -68.62828,32.40505 -96.72692,23.83635 -259.67027,49.57423 -302.32827,-28.4925"
       style="fill:#f9f600;fill-opacity:1;stroke:none;display:inline" />
    <path
       sodipodi:nodetypes="ccccc"
       inkscape:connector-curvature="0"
       id="path3906"
       d="m 405.71428,628.79075 c 16.42928,82.54118 70.87962,93.11392 111.42857,130.00001 L 451.07142,749.14789 254.28571,640.21933 c 90.85473,2.34991 113.55307,-5.69691 151.42857,-11.42858 z"
       style="fill:#000000;fill-opacity:1;fill-rule:nonzero;stroke:none" />
    <rect
       ry="7.875"
       y="604.19061"
       x="237.08147"
       height="22.25"
       width="15.75"
       id="rect3908"
       style="fill:#000000;fill-opacity:1;fill-rule:nonzero;stroke:none" />
    <rect
       style="fill:#000000;fill-opacity:1;fill-rule:nonzero;stroke:none"
       id="rect3910"
       width="15.75"
       height="22.25"
       x="263.24442"
       y="607.37262"
       ry="7.875" />
    <rect
       ry="7.875"
       y="608.07971"
       x="291.52869"
       height="22.25"
       width="15.75"
       id="rect3912"
       style="fill:#000000;fill-opacity:1;fill-rule:nonzero;stroke:none" />
    <rect
       style="fill:#000000;fill-opacity:1;fill-rule:nonzero;stroke:none"
       id="rect3914"
       width="15.75"
       height="22.25"
       x="319.81296"
       y="605.25128"
       ry="7.875" />
    <rect
       ry="7.875"
       y="602.06934"
       x="347.74368"
       height="22.25"
       width="15.75"
       id="rect3916"
       style="fill:#000000;fill-opacity:1;fill-rule:nonzero;stroke:none" />
    <rect
       style="fill:#000000;fill-opacity:1;fill-rule:nonzero;stroke:none"
       id="rect3918"
       width="15.75"
       height="22.25"
       x="376.73508"
       y="598.88733"
       ry="7.875" />
    <rect
       ry="7.875"
       y="592.1698"
       x="407.14066"
       height="22.25"
       width="15.75"
       id="rect3920"
       style="fill:#000000;fill-opacity:1;fill-rule:nonzero;stroke:none" />
    <rect
       style="fill:#000000;fill-opacity:1;fill-rule:nonzero;stroke:none"
       id="rect3922"
       width="15.75"
       height="22.25"
       x="432.24295"
       y="585.45233"
       ry="7.875" />
    <path
       sodipodi:nodetypes="sascss"
       inkscape:connector-curvature="0"
       id="path3924"
       d="m 213.48515,605.61371 c 1.16693,3.4626 -3.26606,7.02367 -6.40298,8.89742 -5.27597,3.1514 -15.79217,9.32719 -18.28122,2.38769 -5.64798,-15.74658 -11.82195,-20.81119 -21.21349,-25.32707 10.03757,-2.51675 18.89185,-6.86589 25.98625,-7.0158 10.30071,-0.21767 16.90225,12.12863 19.91144,21.05776 z"
       style="fill:#000000;fill-opacity:1;fill-rule:nonzero;stroke:none" />
  </g>
  <g
     inkscape:groupmode="layer"
     id="layer4"
     inkscape:label="Layer#1"
     transform="translate(-30.279153,-340.87434)">
    <path
       style="fill:#3d2c07;fill-opacity:1;fill-rule:nonzero;stroke:none"
       d="M 682.71068,633.98054 C 546.77854,543.0524 616.78923,506.99411 607.6102,424.22244 L 530.70809,455.60555 319.29526,696.7521 z"
       id="path3902-1"
       inkscape:connector-curvature="0"
       sodipodi:nodetypes="ccccc" />
    <path
       sodipodi:nodetypes="ccsasassasaasc"
       inkscape:connector-curvature="0"
       id="path3904-7"
       d="m 30.288359,692.18036 c 1.282701,-11.57999 10.515673,-20.04403 31.924767,-31.96129 81.487084,-38.6874 180.313934,-65.2152 218.321084,-58.10894 71.95911,13.45428 150.05678,18.3513 225.09565,13.84976 95.13093,-5.70682 206.2255,-28.86373 281.22063,-51.54721 29.90041,-9.04389 66.88586,-43.21326 94.37084,-71.54921 18.1219,-18.68296 29.11374,-54.05288 45.25657,-63.63137 16.143,-9.57851 14.68593,-36.55386 23.18953,-54.71222 6.3522,-13.56459 13.7476,-36.36414 27.9491,-33.37914 18.2302,3.83184 41.25977,28.72013 15.5912,53.66671 -22.0442,21.42457 4.9947,63.14911 1.7696,94.48362 -6.7634,65.71364 -2.6224,141.73579 -43.9939,193.23754 -39.32248,48.95113 -55.00926,52.00918 -170.33355,80.42847 C 540.57624,822.11826 136.15261,885.95993 30.276587,692.20039"
       style="fill:#f9f600;fill-opacity:1;stroke:none;display:inline" />
    <path
       sodipodi:nodetypes="ccccc"
       inkscape:connector-curvature="0"
       id="path3906-4"
       d="m 712.63684,732.16219 c 40.77703,204.865 115.11297,182.70779 215.75439,274.25801 L 764.4037,982.48692 361.61488,746.87676 c 225.49903,5.83242 257.01597,-0.48871 351.02196,-14.71457 z"
       style="fill:#3d2c07;fill-opacity:1;fill-rule:nonzero;stroke:none" />
    <rect
       ry="19.54554"
       y="657.45453"
       x="318.9144"
       height="55.223907"
       width="39.09108"
       id="rect3908-0"
       style="fill:#3d2c07;fill-opacity:1;fill-rule:nonzero;stroke:none" />
    <rect
       style="fill:#3d2c07;fill-opacity:1;fill-rule:nonzero;stroke:none"
       id="rect3910-9"
       width="39.09108"
       height="55.223907"
       x="386.4827"
       y="665.35217"
       ry="19.54554" />
    <rect
       ry="19.54554"
       y="667.10718"
       x="454.05096"
       height="55.223907"
       width="39.09108"
       id="rect3912-4"
       style="fill:#3d2c07;fill-opacity:1;fill-rule:nonzero;stroke:none" />
    <rect
       style="fill:#3d2c07;fill-opacity:1;fill-rule:nonzero;stroke:none"
       id="rect3914-8"
       width="39.09108"
       height="55.223907"
       x="526.00665"
       y="666.22961"
       ry="19.54554" />
    <rect
       ry="19.54554"
       y="660.96466"
       x="596.6463"
       height="55.223907"
       width="39.09108"
       id="rect3916-8"
       style="fill:#3d2c07;fill-opacity:1;fill-rule:nonzero;stroke:none" />
    <rect
       style="fill:#3d2c07;fill-opacity:1;fill-rule:nonzero;stroke:none"
       id="rect3918-2"
       width="39.09108"
       height="55.223907"
       x="667.72467"
       y="651.75067"
       ry="19.54554" />
    <rect
       ry="19.54554"
       y="637.27179"
       x="738.3642"
       height="55.223907"
       width="39.09108"
       id="rect3920-4"
       style="fill:#3d2c07;fill-opacity:1;fill-rule:nonzero;stroke:none" />
    <rect
       style="fill:#3d2c07;fill-opacity:1;fill-rule:nonzero;stroke:none"
       id="rect3922-5"
       width="39.09108"
       height="55.223907"
       x="798.47363"
       y="621.03796"
       ry="19.54554" />
    <path
       sodipodi:nodetypes="sascss"
       inkscape:connector-curvature="0"
       id="path3924-5"
       d="m 260.34899,660.98654 c 2.89628,8.59408 -8.10628,17.43256 -15.89203,22.08316 -13.09482,7.82169 -39.19574,23.14983 -45.37351,5.92618 -14.01813,-39.08259 -29.34176,-51.65281 -52.65131,-62.86111 24.91298,-6.24651 46.88907,-17.04096 64.49718,-17.41303 25.56609,-0.54026 41.95093,30.10293 49.41967,52.2648 z"
       style="fill:#3d2c07;fill-opacity:1;fill-rule:nonzero;stroke:none" />
  </g>
</svg>
